<svg xmlns="http://www.w3.org/2000/svg" viewBox="0 0 171.71 172.4"><title>zoek</title><g id="Laag_2" data-name="Laag 2"><g id="Laag_1-2" data-name="Laag 1"><g id="kEZRq0.tif"><path d="M70,0c4.18.83,8.42,1.46,12.54,2.53C127.44,14.24,147,66,121.21,104.78c-.72,1.09-1.4,2.21-2.14,3.38l52.64,52.92L159.28,172.4c-16.8-17-34.17-34.62-51-51.66-8.4,3.74-15.78,8-23.71,10.39C48.23,142,10.1,119.32,1.67,82.23-6.85,44.68,18.1,7.37,55.84,1.24,58.26.85,60.66.41,63.07,0ZM16.82,67.28c-.06,27.37,21.88,49.68,49,49.83a49.82,49.82,0,1,0-49-49.83Z"/></g></g></g></svg>