<svg xmlns="http://www.w3.org/2000/svg" viewBox="0 0 128 128"><defs><style>.cls-1{fill:#6d6e70;}.cls-2{fill:#fff;}</style></defs><title>winkel1</title><g id="Laag_2" data-name="Laag 2"><g id="Facebook"><rect id="facebook-back" class="cls-1" width="128" height="128"/><g id="Laag_1-2" data-name="Laag 1-2"><g id="EZrhIb.tif"><path d="M102.08,113.69H25.94a27.78,27.78,0,0,1-1.62-5.57,40.9,40.9,0,0,1,.45-6.41l4.05-56.34C29.08,41.78,30,41,33.57,41H44.12V33.88a19.91,19.91,0,0,1,39.81,0V41H94.76c3.18,0,4.2.92,4.45,4.06.47,5.94.88,11.87,1.31,17.81,1.1,15.08,2.26,30.16,3.19,45.25C103.84,109.94,102.67,111.84,102.08,113.69Zm-70.53-7.25H96.48c-1.39-19.57-2.77-38.9-4.15-58.26H84.24a2.57,2.57,0,0,0-.25.67c0,4,0,8-.06,12,0,3.24-1.09,4.72-3.45,4.72S76.94,64.13,76.94,61V48.21H51.31a5.27,5.27,0,0,0-.16.79c0,4,0,8,0,12,0,3.17-1.18,4.71-3.62,4.55-2.77-.18-3.44-2-3.4-4.48.07-4.27,0-8.54,0-13H35.71C34.33,67.56,33,86.9,31.55,106.44ZM76.81,40.88a69.16,69.16,0,0,0,0-8.29,12.8,12.8,0,0,0-25.45-.21,66.73,66.73,0,0,0-.06,8.5Z"/><path class="cls-2" d="M31.55,106.44c1.4-19.54,2.78-38.9,4.16-58.28h8.41c0,4.4.05,8.68,0,13,0,2.46.63,4.29,3.4,4.48,2.42.15,3.6-1.38,3.62-4.55,0-4,0-8,0-12a4.69,4.69,0,0,1,.14-.82H76.92V61c0,3.17,1.18,4.65,3.54,4.62s3.43-1.5,3.45-4.72q0-6,0-12a2.74,2.74,0,0,1,.26-.67H92.3c1.38,19.35,2.76,38.69,4.16,58.27Z"/><path class="cls-2" d="M76.81,40.88H51.25a66.69,66.69,0,0,1,.06-8.5,12.8,12.8,0,0,1,25.42.21A63.31,63.31,0,0,1,76.81,40.88Z"/></g></g></g></g></svg>