<svg xmlns="http://www.w3.org/2000/svg" viewBox="0 0 134.8 169.07"><defs><style>.cls-1{fill:#fff;}</style></defs><title>winkelmand</title><g id="Laag_2" data-name="Laag 2"><g id="Laag_1-2" data-name="Laag 1"><g id="EZrhIb.tif"><path d="M132,169.07H2.83c-1-3.14-2.47-6.24-2.76-9.45-.32-3.57.51-7.24.77-10.87q3.44-47.81,6.87-95.59c.44-6.1,2-7.38,8.06-7.4,5.89,0,11.77,0,17.89,0,0-4.51,0-8.31,0-12.1a33.78,33.78,0,0,1,67.55,0c0,3.92,0,7.84,0,12.12,6.52,0,12.44,0,18.37,0,5.41,0,7.13,1.56,7.55,6.89.8,10.07,1.5,20.14,2.23,30.21,1.86,25.59,3.84,51.17,5.42,76.78C135,162.71,133,165.93,132,169.07ZM12.34,156.78H122.51c-2.37-33.21-4.71-66-7.05-98.86H101.74a4.31,4.31,0,0,0-.43,1.14c0,6.8-.06,13.59-.1,20.38,0,5.5-1.84,8-5.85,8s-6-2.46-6-7.84c0-7.23,0-14.45,0-21.62H45.86a8.8,8.8,0,0,0-.26,1.33c0,6.79,0,13.59-.05,20.38,0,5.38-2,8-6.14,7.72-4.7-.31-5.85-3.42-5.78-7.6.12-7.24,0-14.49,0-22H19.4C17.05,90.81,14.71,123.62,12.34,156.78ZM89.14,45.53c0-4.9.46-9.54-.1-14.06a21.71,21.71,0,0,0-43.17-.35c-.62,4.66-.1,9.46-.1,14.41Z"/><path class="cls-1" d="M12.34,156.78c2.37-33.16,4.71-66,7.06-98.89H33.66c0,7.47.09,14.72,0,22-.07,4.18,1.08,7.29,5.78,7.6,4.1.27,6.11-2.34,6.14-7.72,0-6.79,0-13.59.05-20.38A8.8,8.8,0,0,1,45.86,58H89.32c0,7.17,0,14.39,0,21.62,0,5.38,2,7.9,6,7.84s5.82-2.54,5.85-8c0-6.79.05-13.58.1-20.38a4.31,4.31,0,0,1,.43-1.14h13.72c2.34,32.84,4.68,65.65,7.05,98.86Z"/><path class="cls-1" d="M89.14,45.53H45.77c0-5-.52-9.75.1-14.41A21.71,21.71,0,0,1,89,31.47C89.6,36,89.14,40.63,89.14,45.53Z"/></g></g></g></svg>