<?xml version="1.0" encoding="utf-8"?>
<!-- Generator: Adobe Illustrator 23.1.0, SVG Export Plug-In . SVG Version: 6.00 Build 0)  -->
<svg version="1.1" id="Laag_1" xmlns="http://www.w3.org/2000/svg" xmlns:xlink="http://www.w3.org/1999/xlink" x="0px" y="0px"
	 viewBox="0 0 134.8 168.6" style="enable-background:new 0 0 134.8 168.6;" xml:space="preserve">
<style type="text/css">
	.st0{fill:#FFFFFF;}
	.st1{fill:#FFF22D;}
</style>
<title>winkelmandpopup</title>
<g id="Laag_1-2">
	<g id="Laag_1-2-2">
		<g id="EZrhIb.tif">
			<path d="M132,168.6H2.8c-1-3.1-2.5-6.2-2.8-9.4c-0.3-3.6,0.5-7.2,0.8-10.9c2.3-31.9,4.6-63.7,6.9-95.6c0.4-6.1,2-7.4,8.1-7.4
				h17.9V33.2C34,14.5,49.4-0.3,68,0c18.2,0.3,32.9,15,33.2,33.2v12.1h18.4c5.4,0,7.1,1.6,7.6,6.9c0.8,10.1,1.5,20.1,2.2,30.2
				c1.9,25.6,3.8,51.2,5.4,76.8C135,162.2,133,165.5,132,168.6z M12.3,156.3h110.2c-2.4-33.2-4.7-66-7.1-98.9h-13.7
				c-0.2,0.4-0.3,0.7-0.4,1.1c0,6.8-0.1,13.6-0.1,20.4c0,5.5-1.8,8-5.8,8s-6-2.5-6-7.8V57.5H45.9c-0.1,0.4-0.2,0.9-0.3,1.3
				c0,6.8,0,13.6,0,20.4c0,5.4-2,8-6.1,7.7c-4.7-0.3-5.8-3.4-5.8-7.6c0.1-7.2,0-14.5,0-22H19.4C17,90.3,14.7,123.2,12.3,156.3z
				 M89.1,45.1c0-4.9,0.5-9.5-0.1-14.1c-1.2-11.9-11.8-20.6-23.7-19.5c-10.2,1-18.2,9-19.4,19.1c-0.6,4.7-0.1,9.5-0.1,14.4H89.1z"/>
			<path class="st0" d="M12.3,156.3c2.4-33.2,4.7-66,7.1-98.9h14.3c0,7.5,0.1,14.7,0,22c-0.1,4.2,1.1,7.3,5.8,7.6
				c4.1,0.3,6.1-2.3,6.1-7.7c0-6.8,0-13.6,0-20.4c0-0.5,0.1-0.9,0.2-1.4h43.5v21.6c0,5.4,2,7.9,6,7.8s5.8-2.5,5.8-8
				c0-6.8,0-13.6,0.1-20.4c0.1-0.4,0.2-0.8,0.4-1.1h13.7c2.3,32.8,4.7,65.7,7,98.9L12.3,156.3z"/>
			<path class="st0" d="M89.1,45.1H45.8c0-5-0.5-9.8,0.1-14.4c1.5-11.9,12.3-20.4,24.2-18.9C80.1,13,87.9,21,89,31
				C89.6,35.5,89.1,40.2,89.1,45.1z"/>
		</g>
	</g>
	<circle class="st1" cx="102.8" cy="37.6" r="32"/>
</g>
</svg>
